<svg preserveAspectRatio="none" overflow="visible" style="display: block;" width="24" height="24" viewBox="0 0 24 24" fill="none" xmlns="http://www.w3.org/2000/svg">
<g id="Instagram">
<path id="Vector" d="M16.145 8.852C15.6148 8.852 15.185 8.42219 15.185 7.892C15.185 7.36181 15.6148 6.932 16.145 6.932C16.6752 6.932 17.105 7.36181 17.105 7.892C17.105 8.42219 16.6752 8.852 16.145 8.852ZM12 16C9.794 16 8 14.206 8 12C8 9.794 9.794 8 12 8C14.206 8 16 9.794 16 12C16 14.206 14.206 16 12 16ZM12 10C10.897 10 10 10.897 10 12C10 13.103 10.897 14 12 14C13.103 14 14 13.103 14 12C14 10.897 13.103 10 12 10ZM16 20H8C5.944 20 4 18.056 4 16V8C4 5.944 5.944 4 8 4H16C18.056 4 20 5.944 20 8V16C20 18.056 18.056 20 16 20ZM8 6C7.065 6 6 7.065 6 8V16C6 16.953 7.047 18 8 18H16C16.935 18 18 16.935 18 16V8C18 7.065 16.935 6 16 6H8Z" fill="#3D3D3D"/>
</g>
</svg>
