<svg preserveAspectRatio="none" overflow="visible" style="display: block;" width="30" height="30" viewBox="0 0 30 30" fill="none" xmlns="http://www.w3.org/2000/svg">
<g id="Facebook" clip-path="url(#clip0_0_47)">
<path id="Subtract" d="M15 -6.67572e-05C23.2842 -6.67572e-05 30 6.71566 30 14.9999C30 23.2842 23.2842 29.9999 15 29.9999C6.71569 29.9999 -3.62396e-05 23.2842 -3.62396e-05 14.9999C-3.62396e-05 6.71566 6.71569 -6.67572e-05 15 -6.67572e-05ZM16.8359 6.74993C14.0784 6.74993 12.9796 8.05877 12.9795 10.3954V12.1025H11.25V14.8603H12.9795V23.2499H16.3447V14.8603H18.7988L19.0332 12.1025H16.3447V10.7704C16.3447 10.0225 16.415 9.55463 17.4902 9.55462C17.8873 9.55462 18.5188 9.62518 18.9863 9.71868L19.4062 7.07708C18.495 6.89012 17.7938 6.74995 16.8359 6.74993Z" fill="white"/>
</g>
<defs>
<clipPath id="clip0_0_47">
<rect width="30" height="30" fill="white"/>
</clipPath>
</defs>
</svg>
